<svg width="353" height="480" fill="none" xmlns="http://www.w3.org/2000/svg"><path d="M153.08 452.79c5.752-2.11 11.224-3.972 17.058-5.571a.56.56 0 0 1 .528.923 20.602 20.602 0 0 1-17.487 5.686.55.55 0 0 1-.437-.482.54.54 0 0 1 .338-.556Z" fill="#333"/><path d="M348.072 7.46c1.418-28.727-54.537 34.512-91.373 38.27 0 0-1.038 0-1.137.907-.099.906.956 1.07.956 1.07 24.228 3.627 48.208-10.135 68.48-22.233-63.882 95.214-164.254 84.385-292.645 86.94-26.502.527-22.546 17.569-13.037 28.595 25.398 23.256 64.525 33.145 95.131 47.978 38.188 17.306 85.127 32.188 120.975 54.158 12.097 7.417 12.047 16.63-4.302 18.014-31.018 2.654-68.926.742-100.125 1.154-17.718.099-35.913-.972-53.796 1.648-13.185 1.088-19.135 14.158-7.4 22.333 35.205 21.178 155.734 42.736 176.698 86.017 27.096 56.037-66.667 103.833-114.645 104.443a1.168 1.168 0 0 0-1.154 1.17 1.648 1.648 0 0 0 1.648 1.648c61.74 2.736 172.166-64.278 115.618-126.248-30.112-32.963-103.372-45.604-150.328-69.107-2.538-1.269-10.35-5.587 1.187-5.076 49.065 2.225 98.526 5.686 147.625.313 44.813-6.164 27.145-38.089-1.187-53.45-51.093-31.726-120.315-55.443-174.012-83.445-8.537-4.45-9.888-8.62 1.385-8.851 109.503-2.175 210.732-13.548 256.073-99.845-2.093 23.074 3.296 49.89 21.656 65.514 0 0 .693.758 1.401.297.709-.462.28-1.352.28-1.352-9.971-30.59-5.092-67.986-3.972-90.862ZM78.65 273.043c-.132-.182-.132-.281 0 0Zm175.115-17.339c.182-.132.182-.198 0 0Z" fill="#333"/><path d="M179.928 443.577c23.388-14.916 49.445-38.452 46.478-68.366a.278.278 0 0 1 .182-.329.279.279 0 0 1 .346.148c15.492 29.452-17.636 64.871-46.808 69.074a.282.282 0 0 1-.198-.527ZM110.525 209.902a15.147 15.147 0 0 1-6.482-.969 15.152 15.152 0 0 1-5.467-3.613 1.233 1.233 0 0 1 .165-1.812c.181-.139.398-.225.626-.248a15.16 15.16 0 0 1 11.95 4.582 1.238 1.238 0 0 1-.792 2.06ZM84.847 198.876C53.532 195.481 3.13 178.851 0 143.63a.562.562 0 0 1 1.055-.264c13.35 30.458 55.427 40.742 84.055 54.389a.576.576 0 0 1-.263 1.121ZM216.22 86.456a132.4 132.4 0 0 0 39.82-16.35.411.411 0 0 1 .511.643c-9.692 11.24-25.431 17.371-40.182 16.481-.511.05-.61-.675-.149-.774Z" fill="#333"/></svg>
