<svg width="413" height="413" fill="none" xmlns="http://www.w3.org/2000/svg"><circle cx="206.5" cy="206.5" r="206.5" fill="#E3E3E3"/><mask id="a" style="mask-type:alpha" maskUnits="userSpaceOnUse" x="0" y="0" width="413" height="413"><circle cx="206.5" cy="206.5" r="206.5" fill="#FFEDEF"/></mask><g mask="url(#a)"><g clip-path="url(#b)"><path d="M271 397.5c-14.4-20-25.667-58.666-27-78L175.5 290 147 397.5h124Z" fill="#AC6651" stroke="#000" stroke-width="4"/><mask id="c" style="mask-type:alpha" maskUnits="userSpaceOnUse" x="147" y="290" width="124" height="118"><path d="M271 407.5c-14.4-20-25.667-68.666-27-88L175.5 290 147 407.5h124Z" fill="#AC6651"/></mask><g mask="url(#c)"><ellipse cx="241" cy="288" rx="59" ry="54" fill="#000" style="mix-blend-mode:multiply"/></g><mask id="d" fill="#fff"><path fill-rule="evenodd" clip-rule="evenodd" d="m300.887 228.917-.083-.347a21.858 21.858 0 0 0-.084-.347l-16.396-68.437a14.954 14.954 0 0 1-.049-.203l-.049-.204-.073-.303h-.001c-10.218-41.444-51.995-66.928-93.569-56.967-41.574 9.961-67.267 51.609-57.594 93.185h-.002l16.992 70.918.014-.003c10.602 40.904 52.07 65.941 93.337 56.053 41.268-9.887 66.887-50.997 57.802-92.265l.013-.003-.258-1.077Z"/></mask><path fill-rule="evenodd" clip-rule="evenodd" d="m300.887 228.917-.083-.347a21.858 21.858 0 0 0-.084-.347l-16.396-68.437a14.954 14.954 0 0 1-.049-.203l-.049-.204-.073-.303h-.001c-10.218-41.444-51.995-66.928-93.569-56.967-41.574 9.961-67.267 51.609-57.594 93.185h-.002l16.992 70.918.014-.003c10.602 40.904 52.07 65.941 93.337 56.053 41.268-9.887 66.887-50.997 57.802-92.265l.013-.003-.258-1.077Z" fill="#AC6651"/><path d="m300.887 228.917-3.894.915.002.009.002.008 3.89-.932Zm-.167-.694-3.889.932.002.009.002.009 3.885-.95Zm-16.396-68.437-3.893.922.003.01 3.89-.932Zm-.098-.407-3.89.932.003.011 3.887-.943Zm-.073-.303 3.89-.932-.931-3.888-3.889.93.93 3.89Zm-.001 0-3.884.958.951 3.856 3.863-.923-.93-3.891Zm-93.569-56.967-.932-3.89.932 3.89Zm-57.594 93.185.934 3.889 3.862-.928-.9-3.868-3.896.907Zm-.002 0-.934-3.889-3.887.933.931 3.888 3.89-.932Zm16.992 70.918-3.89.932.932 3.891 3.891-.934-.933-3.889Zm.014-.003 3.872-1.004-.986-3.803-3.82.917.934 3.89Zm93.337 56.053-.932-3.89.932 3.89Zm57.802-92.265-.931-3.89-3.819.914.844 3.836 3.906-.86Zm.013-.003.931 3.89 3.891-.932-.932-3.89-3.89.932Zm3.636-1.991-.087-.365-7.779 1.864.078.33 7.788-1.829Zm-.087-.365-.088-.364-7.771 1.899.08.329 7.779-1.864Zm-24.26-66.92 16.397 68.437 7.779-1.864-16.397-68.437-7.779 1.864Zm7.782-1.854-.051-.213-7.78 1.864.046.193 7.785-1.844Zm-.051-.213a21.977 21.977 0 0 0-.052-.214l-7.774 1.885.046.193 7.78-1.864Zm-7.902 1.357.073.303 7.78-1.864-.073-.303-7.78 1.864Zm4.819 2.959.002-.001-1.861-7.78h-.001l1.86 7.781Zm2.954-4.848c-10.744-43.579-54.671-70.374-98.385-59.9l1.864 7.78c39.434-9.448 79.061 14.724 88.753 54.035l7.768-1.915Zm-98.385-59.9c-43.714 10.473-70.728 54.265-60.558 97.981l7.792-1.813c-9.175-39.435 15.196-78.94 54.63-88.388l-1.864-7.78Zm-55.73 100.964h.002l-1.868-7.779-.002.001 1.868 7.778Zm19.948 66.097-16.992-70.918-7.78 1.864 16.992 70.918 7.78-1.864Zm-4.81-2.961-.014.003 1.867 7.779.014-.003-1.867-7.779Zm-2.938 4.893c11.148 43.011 54.749 69.336 98.141 58.94l-1.864-7.78c-39.143 9.379-78.477-14.369-88.533-53.167l-7.744 2.007Zm98.141 58.94c43.392-10.396 70.33-53.622 60.777-97.015l-7.813 1.72c8.617 39.143-15.684 78.137-54.828 87.515l1.864 7.78Zm55.951-100.048-.012.003 1.863 7.78.012-.003-1.863-7.78Zm-3.216 3.745.258 1.077 7.78-1.864-.258-1.077-7.78 1.864Z" fill="#000" mask="url(#d)"/></g><rect x="192.248" y="248.471" width="70" height="24" rx="4" transform="rotate(-4 192.248 248.471)" fill="#000"/><path fill-rule="evenodd" clip-rule="evenodd" d="m255.822 244.025-57.318 4.008 1.84 7.005a6 6 0 0 0 6.222 4.461 6 6 0 0 0-5.54 5.283l-.847 7.193 57.317-4.008-1.84-7.005a6 6 0 0 0-6.222-4.461 6 6 0 0 0 5.54-5.283l.848-7.193Z" fill="#fff"/><path d="m265.419 262.704-1.018-14.57c-.258-3.686-3.737-6.254-7.322-5.485-6.944 1.491-20.221 4.134-29.816 4.805-9.596.671-23.112-.099-30.196-.609-3.656-.263-6.744 2.765-6.486 6.451l1.019 14.57c.257 3.686 3.737 6.254 7.321 5.485 6.944-1.491 20.221-4.134 29.817-4.805 9.595-.671 23.111.099 30.195.609 3.656.263 6.744-2.765 6.486-6.451Z" stroke="#000" stroke-width="4"/><path d="m214.771 393.577 1.229-1.578-1.229 1.578 1.722 1.341 1.186-1.831v-.001l.002-.003.009-.014.041-.062.038-.059a77.085 77.085 0 0 1 .801-1.179c.588-.851 1.453-2.068 2.548-3.523 2.194-2.915 5.298-6.765 8.953-10.528 3.666-3.774 7.827-7.401 12.127-9.925 4.316-2.534 8.579-3.844 12.535-3.311 42.438 5.722 73.669 24.519 93.941 52.518h-273.3c16.3-29.342 39.484-48.018 77.071-56.588 1.601-.365 3.779-.254 6.502.379 2.695.627 5.768 1.728 9.081 3.184 6.627 2.913 14.024 7.161 20.976 11.561 6.941 4.393 13.386 8.906 18.1 12.323a367.545 367.545 0 0 1 5.605 4.144 224.821 224.821 0 0 1 1.93 1.472l.1.077.025.02.006.004.001.001Z" fill="#AF52DE" stroke="#000" stroke-width="4"/><path d="m140.613 363.085 5.166-19.232c.21-.779 1.217-.999 1.761-.404 14.863 16.265 33.62 15.627 39.845 14.881.845-.102 1.507.823 1.11 1.576l-13.157 24.953a.952.952 0 0 1-1.038.505c-3.948-.823-23.623-5.632-33.571-21.497a.99.99 0 0 1-.116-.782ZM271.195 362.981l-11.581-19.482c-.393-.662-1.362-.651-1.781-.005-5.737 8.836-15.631 12.906-19.091 14.108-.623.217-.908.956-.572 1.523l13.503 22.815c.201.341.582.525.962.417 2.135-.608 9.46-3.672 18.547-18.336.195-.315.202-.721.013-1.04Z" fill="#E0DDFF" stroke="#000" stroke-width="4"/><path d="m197.5 380.5-9-21.5-7 15 16 6.5ZM229 379.5l9-21.5 7 15-16 6.5ZM158.5 340l-12 3 10 6.5 2-9.5ZM248 340l11 3-7 6.5-4-9.5Z" fill="#000" stroke="#000" stroke-width="4" stroke-linejoin="round"/><path d="M289.178 114.396c-8.322 39.898-106.678 45.5-126.5 45.5-52.022 5.927-27.052 68.366-17.5 99.5-7.5 1-6.5 10-35.5-61.5C86.478 140.696 152.184 105.834 201 94c48.816-11.835 67.5-28.498 67.5-28.498 20.678 8.498 25.617 25.217 20.678 48.894Z" fill="#000"/><path d="m284.135 187.947-15.818-53.44 10.038-9.143c10.755 37.088 11.247 58.624 5.78 62.583ZM159 233c-5.6-27.2-19.666-22.333-29-21l-10-44 40.585-8.494A12.41 12.41 0 0 1 163 159l-2.415.506c-18.151 5.793-5.628 52.29 9.415 71.494l-11 2ZM103.99 130.363c8.845-4.454 19.292-1.876 23.409-.03l-11.771 14.88c3.036-4.856-6.494-11.923-11.638-14.85Z" fill="#000"/><path d="M89 147.5c11.6-6.8 22.833-4.5 27-2.5l-4.5 15.5c-1.2-8.4-15.5-12.167-22.5-13Z" fill="#000"/><path d="M157 215.249v-1.119l-.954-.585c-3.734-2.291-8.274-3.545-12.966-3.545-5.64 0-10.921 1.747-14.682 5.295-3.804 3.587-5.856 8.832-5.311 15.371.531 6.372 2.67 11.061 6.218 14.177a8.002 8.002 0 0 0-.243 3.21c.39 3.269 2.042 5.624 4.595 7.075 2.434 1.383 5.549 1.872 8.867 1.872 5.479 0 10.284-2.947 13.942-6.889l.534-.575v-34.287Z" stroke="#000" stroke-width="4"/><path fill-rule="evenodd" clip-rule="evenodd" d="M162.972 230.984c.071-.652.108-1.314.108-1.984 0-10.217-9.507-17-20-17s-19 6.5-18 18.5c.556 6.677 2.946 11.072 6.651 13.717-.589 1.024-.846 2.227-.683 3.6.629 5.281 5.138 7.183 11.476 7.183 11.105 0 19.892-14.047 20.448-24.016Z" fill="#AC6651"/><path d="M147.5 220.5c-4-1.833-12.8-2.8-16 8" stroke="#171921" stroke-width="4"/><path d="M137 221c2.167 1.833 6.3 7.5 5.5 15.5" stroke="#171921" stroke-width="4"/><ellipse cx="185.53" cy="203.403" rx="9" ry="13.5" transform="rotate(-6.776 185.53 203.403)" fill="#000"/><ellipse cx="249.53" cy="193.403" rx="9" ry="13.5" transform="rotate(-6.276 249.53 193.403)" fill="#000"/><path d="M242 169.214c5.667-2.666 19-5.1 27 6.5M166.579 194.521c2.071-5.911 9.682-17.125 23.563-14.699" stroke="#000" stroke-width="4" stroke-linecap="round"/></g><defs><clipPath id="b"><path fill="#fff" transform="translate(117 78)" d="M0 0h200v320H0z"/></clipPath></defs></svg>
