<svg width="10000" height="10000" fill="none" xmlns="http://www.w3.org/2000/svg"><g clip-path="url(#a)"><path fill="#fff" d="M0 0h10000v10000H0z"/><path d="m-28 0 346.588 222L665.299 0l346.711 222L1358.72 0l346.59 222L2052.02 0l346.71 222L2745.44 0l346.72 222L3438.87 0l346.58 222L4132.17 0l346.71 222L4825.71 0l346.71 222L5519.14 0l346.71 222L6212.56 0l346.71 222L6906.1 0l346.72 222L7599.53 0l346.71 222L8292.95 0l346.83 222L8986.5 0l346.83 222L9680.17 0 10027 222M-28 1778l346.588 222 346.711-222 346.711 222 346.71-222 346.59 222 346.71-222 346.71 222 346.71-222 346.72 222 346.71-222 346.58 222 346.72-222 346.71 222 346.83-222 346.71 222 346.72-222 346.71 222 346.71-222 346.71 222 346.83-222 346.72 222 346.71-222 346.71 222 346.71-222 346.83 222 346.72-222 346.83 222 346.84-222 346.83 222M-28 5556l346.588 222 346.711-222 346.711 222 346.71-222 346.59 222 346.71-222 346.71 222 346.71-222 346.72 222 346.71-222 346.58 222 346.72-222 346.71 222 346.83-222 346.71 222 346.72-222 346.71 222 346.71-222 346.71 222 346.83-222 346.72 222 346.71-222 346.71 222 346.71-222 346.83 222 346.72-222 346.83 222 346.84-222 346.83 222M-28 3556l346.588 222 346.711-222 346.711 222 346.71-222 346.59 222 346.71-222 346.71 222 346.71-222 346.72 222 346.71-222 346.58 222 346.72-222 346.71 222 346.83-222 346.71 222 346.72-222 346.71 222 346.71-222 346.71 222 346.83-222 346.72 222 346.71-222 346.71 222 346.71-222 346.83 222 346.72-222 346.83 222 346.84-222 346.83 222M-28 7333l346.588 223 346.711-223 346.711 223 346.71-223 346.59 223 346.71-223 346.71 223 346.71-223 346.72 223 346.71-223 346.58 223 346.72-223 346.71 223 346.83-223 346.71 223 346.72-223 346.71 223 346.71-223 346.71 223 346.83-223 346.72 223 346.71-223 346.71 223 346.71-223 346.83 223 346.72-223 346.83 223 346.84-223 346.83 223M-28 889l346.588 222 346.711-222 346.711 222 346.71-222 346.59 222 346.71-222 346.71 222 346.71-222 346.72 222 346.71-222 346.58 222 346.72-222 346.71 222 346.83-222 346.71 222 346.72-222 346.71 222 346.71-222 346.71 222 346.83-222 346.72 222 346.71-222 346.71 222 346.71-222 346.83 222 346.72-222 346.83 222 346.84-222 346.83 222M-28 2667l346.588 222 346.711-222 346.711 222 346.71-222 346.59 222 346.71-222 346.71 222 346.71-222 346.72 222 346.71-222 346.58 222 346.72-222 346.71 222 346.83-222 346.71 222 346.72-222 346.71 222 346.71-222 346.71 222 346.83-222 346.72 222 346.71-222 346.71 222 346.71-222 346.83 222 346.72-222 346.83 222 346.84-222 346.83 222M-28 6444l346.588 223 346.711-223 346.711 223 346.71-223 346.59 223 346.71-223 346.71 223 346.71-223 346.72 223 346.71-223 346.58 223 346.72-223 346.71 223 346.83-223 346.71 223 346.72-223 346.71 223 346.71-223 346.71 223 346.83-223 346.72 223 346.71-223 346.71 223 346.71-223 346.83 223 346.72-223 346.83 223 346.84-223 346.83 223M-28 4444l346.588 223 346.711-223 346.711 223 346.71-223 346.59 223 346.71-223 346.71 223 346.71-223 346.72 223 346.71-223 346.58 223 346.72-223 346.71 223 346.83-223 346.71 223 346.72-223 346.71 223 346.71-223 346.71 223 346.83-223 346.72 223 346.71-223 346.71 223 346.71-223 346.83 223 346.72-223 346.83 223 346.84-223 346.83 223M-28 8222l346.588 222 346.711-222 346.711 222 346.71-222 346.59 222 346.71-222 346.71 222 346.71-222 346.72 222 346.71-222 346.58 222 346.72-222 346.71 222 346.83-222 346.71 222 346.72-222 346.71 222 346.71-222 346.71 222 346.83-222 346.72 222 346.71-222 346.71 222 346.71-222 346.83 222 346.72-222 346.83 222 346.84-222 346.83 222M-28 9111l346.588 222 346.711-222 346.711 222 346.71-222 346.59 222 346.71-222 346.71 222 346.71-222 346.72 222 346.71-222 346.58 222 346.72-222 346.71 222 346.83-222 346.71 222 346.72-222 346.71 222 346.71-222 346.71 222 346.83-222 346.72 222 346.71-222 346.71 222 346.71-222 346.83 222 346.72-222 346.83 222 346.84-222 346.83 222M-28 444l346.588 223 346.711-223 346.711 223 346.71-223 346.59 223 346.71-223 346.71 223 346.71-223 346.72 223 346.71-223 346.58 223 346.72-223 346.71 223 346.83-223 346.71 223 346.72-223 346.71 223 346.71-223 346.71 223 346.83-223 346.72 223 346.71-223 346.71 223 346.71-223 346.83 223 346.72-223 346.83 223 346.84-223L10027 667M-28 2222l346.588 222 346.711-222 346.711 222 346.71-222 346.59 222 346.71-222 346.71 222 346.71-222 346.72 222 346.71-222 346.58 222 346.72-222 346.71 222 346.83-222 346.71 222 346.72-222 346.71 222 346.71-222 346.71 222 346.83-222 346.72 222 346.71-222 346.71 222 346.71-222 346.83 222 346.72-222 346.83 222 346.84-222 346.83 222M-28 6000l346.588 222 346.711-222 346.711 222 346.71-222 346.59 222 346.71-222 346.71 222 346.71-222 346.72 222 346.71-222 346.58 222 346.72-222 346.71 222 346.83-222 346.71 222 346.72-222 346.71 222 346.71-222 346.71 222 346.83-222 346.72 222 346.71-222 346.71 222 346.71-222 346.83 222 346.72-222 346.83 222 346.84-222 346.83 222M-28 4000l346.588 222 346.711-222 346.711 222 346.71-222 346.59 222 346.71-222 346.71 222 346.71-222 346.72 222 346.71-222 346.58 222 346.72-222 346.71 222 346.83-222 346.71 222 346.72-222 346.71 222 346.71-222 346.71 222 346.83-222 346.72 222 346.71-222 346.71 222 346.71-222 346.83 222 346.72-222 346.83 222 346.84-222 346.83 222M-28 7778l346.588 222 346.711-222 346.711 222 346.71-222 346.59 222 346.71-222 346.71 222 346.71-222 346.72 222 346.71-222 346.58 222 346.72-222 346.71 222 346.83-222 346.71 222 346.72-222 346.71 222 346.71-222 346.71 222 346.83-222 346.72 222 346.71-222 346.71 222 346.71-222 346.83 222 346.72-222 346.83 222 346.84-222 346.83 222M-28 1333l346.588 223 346.711-223 346.711 223 346.71-223 346.59 223 346.71-223 346.71 223 346.71-223 346.72 223 346.71-223 346.58 223 346.72-223 346.71 223 346.83-223 346.71 223 346.72-223 346.71 223 346.71-223 346.71 223 346.83-223 346.72 223 346.71-223 346.71 223 346.71-223 346.83 223 346.72-223 346.83 223 346.84-223 346.83 223M-28 3111l346.588 222 346.711-222 346.711 222 346.71-222 346.59 222 346.71-222 346.71 222 346.71-222 346.72 222 346.71-222 346.58 222 346.72-222 346.71 222 346.83-222 346.71 222 346.72-222 346.71 222 346.71-222 346.71 222 346.83-222 346.72 222 346.71-222 346.71 222 346.71-222 346.83 222 346.72-222 346.83 222 346.84-222 346.83 222M-28 6889l346.588 222 346.711-222 346.711 222 346.71-222 346.59 222 346.71-222 346.71 222 346.71-222 346.72 222 346.71-222 346.58 222 346.72-222 346.71 222 346.83-222 346.71 222 346.72-222 346.71 222 346.71-222 346.71 222 346.83-222 346.72 222 346.71-222 346.71 222 346.71-222 346.83 222 346.72-222 346.83 222 346.84-222 346.83 222M-28 4889l346.588 222 346.711-222 346.711 222 346.71-222 346.59 222 346.71-222 346.71 222 346.71-222 346.72 222 346.71-222 346.58 222 346.72-222 346.71 222 346.83-222 346.71 222 346.72-222 346.71 222 346.71-222 346.71 222 346.83-222 346.72 222 346.71-222 346.71 222 346.71-222 346.83 222 346.72-222 346.83 222 346.84-222 346.83 222M-28 8667l346.588 222 346.711-222 346.711 222 346.71-222 346.59 222 346.71-222 346.71 222 346.71-222 346.72 222 346.71-222 346.58 222 346.72-222 346.71 222 346.83-222 346.71 222 346.72-222 346.71 222 346.71-222 346.71 222 346.83-222 346.72 222 346.71-222 346.71 222 346.71-222 346.83 222 346.72-222 346.83 222 346.84-222 346.83 222M-28 9556l346.588 222 346.711-222 346.711 222 346.71-222 346.59 222 346.71-222 346.71 222 346.71-222 346.72 222 346.71-222 346.58 222 346.72-222 346.71 222 346.83-222 346.71 222 346.72-222 346.71 222 346.71-222 346.71 222 346.83-222 346.72 222 346.71-222 346.71 222 346.71-222 346.83 222 346.72-222 346.83 222 346.84-222 346.83 222M-28 222l346.588 222 346.711-222 346.711 222 346.71-222 346.59 222 346.71-222 346.71 222 346.71-222 346.72 222 346.71-222 346.58 222 346.72-222 346.71 222 346.83-222 346.71 222 346.72-222 346.71 222 346.71-222 346.71 222 346.83-222 346.72 222 346.71-222 346.71 222 346.71-222 346.83 222 346.72-222 346.83 222 346.84-222L10027 444M-28 2000l346.588 222 346.711-222 346.711 222 346.71-222 346.59 222 346.71-222 346.71 222 346.71-222 346.72 222 346.71-222 346.58 222 346.72-222 346.71 222 346.83-222 346.71 222 346.72-222 346.71 222 346.71-222 346.71 222 346.83-222 346.72 222 346.71-222 346.71 222 346.71-222 346.83 222 346.72-222 346.83 222 346.84-222 346.83 222M-28 5778l346.588 222 346.711-222 346.711 222 346.71-222 346.59 222 346.71-222 346.71 222 346.71-222 346.72 222 346.71-222 346.58 222 346.72-222 346.71 222 346.83-222 346.71 222 346.72-222 346.71 222 346.71-222 346.71 222 346.83-222 346.72 222 346.71-222 346.71 222 346.71-222 346.83 222 346.72-222 346.83 222 346.84-222 346.83 222M-28 3778l346.588 222 346.711-222 346.711 222 346.71-222 346.59 222 346.71-222 346.71 222 346.71-222 346.72 222 346.71-222 346.58 222 346.72-222 346.71 222 346.83-222 346.71 222 346.72-222 346.71 222 346.71-222 346.71 222 346.83-222 346.72 222 346.71-222 346.71 222 346.71-222 346.83 222 346.72-222 346.83 222 346.84-222 346.83 222M-28 7556l346.588 222 346.711-222 346.711 222 346.71-222 346.59 222 346.71-222 346.71 222 346.71-222 346.72 222 346.71-222 346.58 222 346.72-222 346.71 222 346.83-222 346.71 222 346.72-222 346.71 222 346.71-222 346.71 222 346.83-222 346.72 222 346.71-222 346.71 222 346.71-222 346.83 222 346.72-222 346.83 222 346.84-222 346.83 222M-28 1111l346.588 222 346.711-222 346.711 222 346.71-222 346.59 222 346.71-222 346.71 222 346.71-222 346.72 222 346.71-222 346.58 222 346.72-222 346.71 222 346.83-222 346.71 222 346.72-222 346.71 222 346.71-222 346.71 222 346.83-222 346.72 222 346.71-222 346.71 222 346.71-222 346.83 222 346.72-222 346.83 222 346.84-222 346.83 222M-28 2889l346.588 222 346.711-222 346.711 222 346.71-222 346.59 222 346.71-222 346.71 222 346.71-222 346.72 222 346.71-222 346.58 222 346.72-222 346.71 222 346.83-222 346.71 222 346.72-222 346.71 222 346.71-222 346.71 222 346.83-222 346.72 222 346.71-222 346.71 222 346.71-222 346.83 222 346.72-222 346.83 222 346.84-222 346.83 222M-28 6667l346.588 222 346.711-222 346.711 222 346.71-222 346.59 222 346.71-222 346.71 222 346.71-222 346.72 222 346.71-222 346.58 222 346.72-222 346.71 222 346.83-222 346.71 222 346.72-222 346.71 222 346.71-222 346.71 222 346.83-222 346.72 222 346.71-222 346.71 222 346.71-222 346.83 222 346.72-222 346.83 222 346.84-222 346.83 222M-28 4667l346.588 222 346.711-222 346.711 222 346.71-222 346.59 222 346.71-222 346.71 222 346.71-222 346.72 222 346.71-222 346.58 222 346.72-222 346.71 222 346.83-222 346.71 222 346.72-222 346.71 222 346.71-222 346.71 222 346.83-222 346.72 222 346.71-222 346.71 222 346.71-222 346.83 222 346.72-222 346.83 222 346.84-222 346.83 222M-28 8444l346.588 223 346.711-223 346.711 223 346.71-223 346.59 223 346.71-223 346.71 223 346.71-223 346.72 223 346.71-223 346.58 223 346.72-223 346.71 223 346.83-223 346.71 223 346.72-223 346.71 223 346.71-223 346.71 223 346.83-223 346.72 223 346.71-223 346.71 223 346.71-223 346.83 223 346.72-223 346.83 223 346.84-223 346.83 223M-28 9333l346.588 223 346.711-223 346.711 223 346.71-223 346.59 223 346.71-223 346.71 223 346.71-223 346.72 223 346.71-223 346.58 223 346.72-223 346.71 223 346.83-223 346.71 223 346.72-223 346.71 223 346.71-223 346.71 223 346.83-223 346.72 223 346.71-223 346.71 223 346.71-223 346.83 223 346.72-223 346.83 223 346.84-223 346.83 223M-28 667l346.588 222 346.711-222 346.711 222 346.71-222 346.59 222 346.71-222 346.71 222 346.71-222 346.72 222 346.71-222 346.58 222 346.72-222 346.71 222 346.83-222 346.71 222 346.72-222 346.71 222 346.71-222 346.71 222 346.83-222 346.72 222 346.71-222 346.71 222 346.71-222 346.83 222 346.72-222 346.83 222 346.84-222L10027 889M-28 2444l346.588 223 346.711-223 346.711 223 346.71-223 346.59 223 346.71-223 346.71 223 346.71-223 346.72 223 346.71-223 346.58 223 346.72-223 346.71 223 346.83-223 346.71 223 346.72-223 346.71 223 346.71-223 346.71 223 346.83-223 346.72 223 346.71-223 346.71 223 346.71-223 346.83 223 346.72-223 346.83 223 346.84-223 346.83 223M-28 6222l346.588 222 346.711-222 346.711 222 346.71-222 346.59 222 346.71-222 346.71 222 346.71-222 346.72 222 346.71-222 346.58 222 346.72-222 346.71 222 346.83-222 346.71 222 346.72-222 346.71 222 346.71-222 346.71 222 346.83-222 346.72 222 346.71-222 346.71 222 346.71-222 346.83 222 346.72-222 346.83 222 346.84-222 346.83 222M-28 4222l346.588 222 346.711-222 346.711 222 346.71-222 346.59 222 346.71-222 346.71 222 346.71-222 346.72 222 346.71-222 346.58 222 346.72-222 346.71 222 346.83-222 346.71 222 346.72-222 346.71 222 346.71-222 346.71 222 346.83-222 346.72 222 346.71-222 346.71 222 346.71-222 346.83 222 346.72-222 346.83 222 346.84-222 346.83 222M-28 8000l346.588 222 346.711-222 346.711 222 346.71-222 346.59 222 346.71-222 346.71 222 346.71-222 346.72 222 346.71-222 346.58 222 346.72-222 346.71 222 346.83-222 346.71 222 346.72-222 346.71 222 346.71-222 346.71 222 346.83-222 346.72 222 346.71-222 346.71 222 346.71-222 346.83 222 346.72-222 346.83 222 346.84-222 346.83 222M-28 1556l346.588 222 346.711-222 346.711 222 346.71-222 346.59 222 346.71-222 346.71 222 346.71-222 346.72 222 346.71-222 346.58 222 346.72-222 346.71 222 346.83-222 346.71 222 346.72-222 346.71 222 346.71-222 346.71 222 346.83-222 346.72 222 346.71-222 346.71 222 346.71-222 346.83 222 346.72-222 346.83 222 346.84-222 346.83 222M-28 5333l346.588 223 346.711-223 346.711 223 346.71-223 346.59 223 346.71-223 346.71 223 346.71-223 346.72 223 346.71-223 346.58 223 346.72-223 346.71 223 346.83-223 346.71 223 346.72-223 346.71 223 346.71-223 346.71 223 346.83-223 346.72 223 346.71-223 346.71 223 346.71-223 346.83 223 346.72-223 346.83 223 346.84-223 346.83 223M-28 3333l346.588 223 346.711-223 346.711 223 346.71-223 346.59 223 346.71-223 346.71 223 346.71-223 346.72 223 346.71-223 346.58 223 346.72-223 346.71 223 346.83-223 346.71 223 346.72-223 346.71 223 346.71-223 346.71 223 346.83-223 346.72 223 346.71-223 346.71 223 346.71-223 346.83 223 346.72-223 346.83 223 346.84-223 346.83 223M-28 7111l346.588 222 346.711-222 346.711 222 346.71-222 346.59 222 346.71-222 346.71 222 346.71-222 346.72 222 346.71-222 346.58 222 346.72-222 346.71 222 346.83-222 346.71 222 346.72-222 346.71 222 346.71-222 346.71 222 346.83-222 346.72 222 346.71-222 346.71 222 346.71-222 346.83 222 346.72-222 346.83 222 346.84-222 346.83 222M-28 5111l346.588 222 346.711-222 346.711 222 346.71-222 346.59 222 346.71-222 346.71 222 346.71-222 346.72 222 346.71-222 346.58 222 346.72-222 346.71 222 346.83-222 346.71 222 346.72-222 346.71 222 346.71-222 346.71 222 346.83-222 346.72 222 346.71-222 346.71 222 346.71-222 346.83 222 346.72-222 346.83 222 346.84-222 346.83 222M-28 8889l346.588 222 346.711-222 346.711 222 346.71-222 346.59 222 346.71-222 346.71 222 346.71-222 346.72 222 346.71-222 346.58 222 346.72-222 346.71 222 346.83-222 346.71 222 346.72-222 346.71 222 346.71-222 346.71 222 346.83-222 346.72 222 346.71-222 346.71 222 346.71-222 346.83 222 346.72-222 346.83 222 346.84-222 346.83 222M-28 9778l346.588 222 346.711-222 346.711 222 346.71-222 346.59 222 346.71-222 346.71 222 346.71-222 346.72 222 346.71-222 346.58 222 346.72-222 346.71 222 346.83-222 346.71 222 346.72-222 346.71 222 346.71-222 346.71 222 346.83-222 346.72 222 346.71-222 346.71 222 346.71-222 346.83 222 346.72-222 346.83 222 346.84-222 346.83 222" stroke="#F0F1F2" stroke-width="5" stroke-miterlimit="10" stroke-linecap="round"/></g><defs><clipPath id="a"><path fill="#fff" d="M0 0h10000v10000H0z"/></clipPath></defs></svg>
